<svg version="1.0" xmlns="http://www.w3.org/2000/svg"
 width="1747.000000pt" height="1747.000000pt" viewBox="0 0 1747.000000 1747.000000"
 preserveAspectRatio="xMidYMid meet">

<g transform="translate(0.000000,1747.000000) scale(0.100000,-0.100000)"
fill="#3b82f6" stroke="none">
<path d="M8265 17449 c-1553 -87 -3019 -568 -4310 -1414 -486 -318 -901 -654
-1324 -1070 -600 -590 -1065 -1190 -1467 -1891 -105 -183 -279 -514 -270 -514
3 0 18 19 34 43 50 71 157 188 245 265 362 322 898 580 1632 787 377 106 1021
271 1365 350 63 14 131 30 150 35 l35 9 0 178 c1 196 12 255 75 407 77 183
299 452 458 554 253 162 698 317 1110 386 l133 22 55 83 c239 356 707 612
1368 746 165 33 351 60 601 87 154 17 1136 16 1345 -1 511 -42 892 -138 1171
-296 192 -109 346 -237 475 -395 198 -243 284 -441 284 -657 0 -51 2 -93 5
-93 3 0 23 9 43 19 77 39 159 53 282 48 97 -3 123 -1 168 15 114 42 276 178
422 356 132 160 352 257 715 316 264 43 544 51 665 18 41 -11 84 -24 95 -27
32 -12 -95 79 -295 211 -1306 860 -2767 1338 -4350 1424 -210 11 -705 11 -915
-1z"/>
<path d="M14060 15646 c0 -2 16 -28 36 -57 20 -30 43 -70 52 -89 23 -55 229
-896 242 -987 24 -182 -40 -333 -179 -423 -118 -75 -200 -93 -900 -195 -212
-30 -386 -57 -388 -59 -2 -1 2 -29 8 -62 38 -203 -48 -462 -213 -639 -114
-122 -250 -196 -430 -231 l-85 -17 54 -76 c31 -42 68 -102 84 -133 73 -145
201 -345 328 -512 201 -267 421 -493 736 -757 116 -97 289 -248 385 -336 512
-468 641 -676 628 -1012 -7 -163 -27 -212 -127 -311 -174 -174 -382 -218 -494
-107 -23 23 -46 50 -52 59 -9 14 -20 5 -75 -60 -72 -85 -174 -174 -241 -211
l-43 -25 19 25 c102 131 152 204 185 273 107 222 116 439 30 697 -71 215 -138
329 -417 722 -232 325 -299 413 -245 325 155 -257 305 -585 403 -880 74 -222
92 -322 93 -508 0 -163 -13 -252 -56 -390 -51 -161 -109 -261 -213 -365 -126
-128 -225 -193 -415 -270 -164 -67 -163 -67 -99 1 122 129 197 259 243 416 38
131 49 242 43 413 -6 163 -24 280 -67 450 -28 108 -74 254 -65 205 30 -160 39
-273 40 -495 0 -267 -10 -347 -66 -522 -71 -221 -192 -398 -359 -526 -80 -60
-348 -193 -490 -242 -132 -45 -308 -89 -425 -105 -154 -21 -153 -27 -29 145
140 196 162 254 133 358 l-10 38 -48 -40 c-37 -31 -51 -51 -65 -98 -56 -178
-171 -322 -327 -407 -65 -36 -197 -76 -250 -76 -15 0 -29 -5 -31 -11 -2 -6
-152 -36 -333 -68 l-330 -57 3 -95 c2 -51 11 -146 20 -209 l17 -115 50 2 c545
27 1330 35 1420 15 189 -42 301 -98 411 -207 108 -107 143 -179 189 -385 54
-242 125 -622 125 -672 0 -65 -26 -138 -70 -196 l-38 -50 25 -24 c40 -36 135
-156 190 -238 213 -317 361 -784 428 -1345 47 -394 271 -1588 494 -2635 44
-206 96 -454 117 -550 20 -96 38 -177 40 -179 5 -6 295 205 459 334 1530 1202
2605 2851 3080 4728 125 490 197 941 247 1532 17 202 17 1019 0 1225 -67 809
-199 1469 -437 2175 -537 1597 -1533 3007 -2872 4068 -40 32 -73 56 -73 53z"/>
<path d="M9189 15412 c-91 -58 -222 -248 -364 -532 -38 -74 -69 -136 -70 -137
-1 -2 -116 -14 -255 -28 -1206 -121 -2311 -289 -3530 -540 -124 -25 -234 -50
-246 -54 -14 -6 -28 -33 -47 -92 -104 -328 -64 -619 124 -903 74 -113 145
-191 223 -248 l48 -35 122 29 c206 48 797 165 1076 213 587 100 1056 158 1848
229 31 3 42 0 42 -10 0 -10 -1060 -3459 -1539 -5006 l-59 -188 137 0 c75 0
172 3 216 6 l80 7 -44 334 c-24 183 -41 336 -38 339 3 4 25 9 49 11 l44 5 11
-133 c19 -210 76 -375 173 -497 41 -53 41 -53 93 -50 l52 3 47 94 c81 163 118
342 118 579 0 107 3 142 13 142 6 0 22 3 35 6 l22 6 0 -188 c-1 -301 -39 -488
-125 -600 -32 -41 -31 -44 5 -44 27 0 31 4 44 53 9 28 83 288 165 577 363
1274 631 2155 925 3035 231 689 371 1071 549 1488 59 140 74 167 92 167 38 0
1004 90 1460 136 604 60 1160 123 1685 190 239 30 459 58 488 61 28 3 52 7 52
9 0 1 -12 36 -27 76 -22 60 -38 84 -92 138 -44 44 -85 74 -123 90 -32 14 -57
27 -57 30 0 3 19 19 42 35 24 17 54 52 68 80 51 95 45 101 -26 27 -67 -71
-147 -122 -192 -122 -42 0 -24 29 47 76 39 26 70 48 70 50 0 1 -27 -8 -60 -22
-91 -37 -96 -35 -104 39 -11 95 -34 174 -76 263 -35 73 -66 119 -212 317 -69
93 -198 179 -290 193 -18 3 -121 -9 -228 -25 -608 -96 -1350 -191 -1482 -191
l-66 0 -99 86 c-278 244 -499 392 -652 438 -77 23 -111 20 -162 -12z"/>
<path d="M4979 14668 c-154 -151 -262 -297 -344 -470 -24 -51 -43 -93 -42 -95
2 -1 26 4 54 10 l52 12 68 135 c69 136 160 283 259 417 30 40 51 73 46 73 -4
0 -46 -37 -93 -82z"/>
<path d="M4465 14067 c-49 -11 -91 -21 -92 -22 -1 0 4 -28 12 -60 8 -35 14
-114 15 -190 1 -368 79 -594 270 -785 53 -53 163 -120 198 -120 9 0 -23 39
-69 88 -130 133 -202 250 -252 408 -63 200 -59 415 11 642 13 41 16 62 8 61
-6 -1 -51 -11 -101 -22z"/>
<path d="M4715 12751 c-1067 -269 -1749 -535 -2165 -845 -106 -78 -283 -251
-376 -366 -269 -331 -386 -657 -354 -987 38 -396 220 -903 591 -1641 109 -217
172 -353 180 -390 16 -77 6 -198 -19 -249 -60 -116 -210 -156 -348 -92 -86 40
-158 126 -350 414 -557 838 -887 1450 -1010 1877 -90 314 -159 738 -194 1194
-11 143 -4 290 21 402 6 29 9 55 7 58 -8 7 -154 -373 -225 -581 -868 -2559
-502 -5389 986 -7625 343 -516 658 -899 1110 -1351 335 -334 592 -560 926
-810 154 -116 376 -271 380 -267 3 2 20 105 40 229 114 724 339 1740 425 1915
76 155 262 253 481 254 l75 0 18 74 c19 84 61 177 108 243 20 27 112 109 223
198 153 122 193 158 201 186 103 321 141 446 224 735 l98 341 -158 412 c-88
227 -191 501 -231 609 -71 195 -71 198 -66 276 7 107 46 185 131 263 150 137
400 246 794 346 l165 42 68 220 c37 121 70 230 74 243 5 21 3 22 -56 22 -163
0 -345 168 -438 402 -60 152 -103 371 -119 603 l-8 110 -19 -115 c-30 -174
-28 -481 3 -604 24 -95 92 -248 136 -306 l27 -35 -58 -8 c-32 -5 -118 -6 -191
-2 -485 21 -785 201 -903 543 l-34 97 1 205 c0 186 3 216 28 330 58 264 238
754 383 1045 19 39 31 66 25 60 -18 -19 -268 -400 -331 -504 -306 -511 -442
-1053 -345 -1381 38 -130 130 -249 239 -311 30 -17 55 -33 55 -36 0 -3 -30 -3
-67 -1 -122 9 -217 76 -296 209 -47 80 -97 233 -104 319 -13 156 73 546 166
753 16 34 202 342 415 684 212 342 386 625 386 628 0 4 -28 37 -61 73 -65 69
-109 148 -109 196 0 74 66 137 258 245 73 42 92 57 92 75 0 38 38 171 116 407
l74 225 -118 340 -119 339 -39 7 c-21 3 -74 12 -117 18 -97 14 -181 41 -270
86 -38 19 -81 34 -95 33 -15 0 -166 -36 -337 -78z"/>
<path d="M8132 9003 c10 -139 -6 -335 -37 -461 -27 -106 -116 -297 -162 -348
-26 -28 -37 -31 -133 -44 -58 -7 -152 -16 -209 -19 l-104 -6 -44 -154 c-24
-85 -42 -155 -41 -157 2 -1 128 8 281 21 152 13 390 32 527 42 l250 17 0 151
0 151 -192 -4 c-106 -2 -199 1 -206 6 -11 7 -6 25 26 88 99 199 139 433 113
664 -15 131 -16 134 -47 148 -14 7 -26 12 -27 12 -1 0 1 -48 5 -107z"/>
<path d="M10055 7979 c-650 -31 -1575 -85 -1582 -93 -2 -2 -8 -88 -13 -192
-15 -295 -57 -445 -147 -524 -109 -96 -383 -173 -713 -200 -320 -25 -382 -32
-500 -56 -282 -56 -486 -154 -654 -314 -127 -121 -212 -257 -271 -435 -15 -44
-78 -338 -141 -654 -70 -355 -119 -580 -128 -589 -8 -8 -115 -94 -238 -191
l-223 -177 -44 -124 c-60 -172 -167 -459 -196 -523 l-23 -54 -79 13 c-43 7
-105 13 -139 13 l-61 1 -7 -61 c-15 -149 -4 -326 44 -689 16 -124 36 -295 45
-380 18 -184 28 -243 62 -370 14 -52 26 -122 27 -156 1 -56 -2 -65 -50 -140
-105 -162 -155 -251 -184 -325 -71 -186 -65 -357 20 -534 49 -101 177 -272
298 -397 91 -94 95 -97 208 -144 63 -26 116 -45 118 -43 12 12 71 175 97 268
16 58 90 376 164 706 467 2090 779 3376 1031 4253 94 329 201 658 220 676 48
48 1323 96 2562 96 664 0 688 -2 822 -67 92 -45 168 -119 229 -222 108 -183
219 -230 472 -202 151 18 616 97 744 127 207 50 357 109 468 187 47 33 55 43
45 54 -27 33 -209 162 -280 198 l-78 40 0 45 c-1 214 -145 399 -405 521 -184
86 -359 129 -529 129 -163 0 -307 -35 -456 -110 l-64 -32 -23 28 c-80 100
-175 354 -223 597 -10 49 -14 57 -33 56 -12 -1 -98 -6 -192 -10z"/>
</g>
</svg>
