<svg xmlns="http://www.w3.org/2000/svg" width="2328" height="2328" fill="none" viewBox="0 0 2328 2328">
  <ellipse cx="1163.5" cy="1164" fill="#fff" rx="1163.5" ry="1164"/>
  <path fill="#3B82F6" d="M1102 1.8C894.933 13.4 699.467 77.533 527.333 190.333c-64.8 42.4-120.133 87.2-176.533 142.667-80 78.667-142 158.667-195.6 252.133-14 24.4-37.2 68.534-36 68.534.4 0 2.4-2.534 4.533-5.734 6.667-9.466 20.934-25.066 32.667-35.333 48.267-42.933 119.733-77.333 217.6-104.933 50.267-14.134 136.133-36.134 182-46.667 8.4-1.867 17.467-4 20-4.667l4.667-1.2V431.4c.133-26.133 1.6-34 10-54.267 10.266-24.4 39.866-60.266 61.066-73.866 33.734-21.6 93.067-42.267 148-51.467l17.734-2.933L824.8 237.8c31.867-47.467 94.267-81.6 182.4-99.467 22-4.4 46.8-8 80.13-11.6 20.54-2.266 151.47-2.133 179.34.134 68.13 5.6 118.93 18.4 156.13 39.466 25.6 14.534 46.13 31.6 63.33 52.667 26.4 32.4 37.87 58.8 37.87 87.6 0 6.8.27 12.4.67 12.4s3.06-1.2 5.73-2.533c10.27-5.2 21.2-7.067 37.6-6.4 12.93.4 16.4.133 22.4-2 15.2-5.6 36.8-23.734 56.27-47.467 17.6-21.333 46.93-34.267 95.33-42.133 35.2-5.734 72.53-6.8 88.67-2.4 5.46 1.466 11.2 3.2 12.66 3.6 4.27 1.6-12.66-10.534-39.33-28.134-174.13-114.666-368.93-178.4-580-189.866C1196 .2 1130 .2 1102 1.8Zm772.67 240.4c0 .267 2.13 3.733 4.8 7.6 2.66 4 5.73 9.333 6.93 11.867 3.07 7.333 30.53 119.466 32.27 131.6 3.2 24.266-5.34 44.4-23.87 56.4-15.73 10-26.67 12.4-120 26-28.27 4-51.47 7.6-51.73 7.866-.27.134.26 3.867 1.06 8.267 5.07 27.067-6.4 61.6-28.4 85.2-15.2 16.267-33.33 26.133-57.33 30.8l-11.33 2.267 7.2 10.133c4.13 5.6 9.06 13.6 11.2 17.733 9.73 19.334 26.8 46 43.73 68.267 26.8 35.6 56.13 65.733 98.13 100.933 15.47 12.934 38.54 33.067 51.34 44.8 68.26 62.4 85.46 90.134 83.73 134.934-.93 21.733-3.6 28.263-16.93 41.463-23.2 23.2-50.94 29.07-65.87 14.27-3.07-3.07-6.13-6.67-6.93-7.87-1.2-1.86-2.67-.66-10 8-9.6 11.34-23.2 23.2-32.14 28.14l-5.73 3.33 2.53-3.33c13.6-17.47 20.27-27.2 24.67-36.4 14.27-29.6 15.47-58.537 4-92.937-9.47-28.666-18.4-43.866-55.6-96.266-30.93-43.334-39.87-55.067-32.67-43.334 20.67 34.267 40.67 78 53.74 117.334 9.86 29.6 12.26 42.933 12.4 67.733 0 21.73-1.74 33.6-7.47 52-6.8 21.47-14.53 34.8-28.4 48.67-16.8 17.06-30 25.73-55.33 36-21.87 8.93-21.74 8.93-13.2-.14 16.26-17.2 26.26-34.53 32.4-55.46 5.06-17.47 6.53-32.27 5.73-55.07-.8-21.733-3.2-37.333-8.93-60-3.74-14.4-9.87-33.867-8.67-27.333 4 21.333 5.2 36.4 5.33 66 0 35.603-1.33 46.263-8.8 69.603-9.46 29.46-25.6 53.06-47.86 70.13-10.67 8-46.4 25.73-65.34 32.27-17.6 6-41.06 11.86-56.66 14-20.54 2.8-20.4 3.6-3.87-19.34 18.67-26.13 21.6-33.86 17.73-47.73l-1.33-5.07-6.4 5.34c-4.93 4.13-6.8 6.8-8.67 13.06-7.46 23.74-22.8 42.94-43.6 54.27-8.66 4.8-26.26 10.13-33.33 10.13-2 0-3.87.67-4.13 1.47-.27.8-20.27 4.8-44.4 9.07l-44 7.6.4 12.66c.26 6.8 1.46 19.47 2.66 27.87l2.27 15.33 6.67-.26c72.66-3.6 177.33-4.67 189.33-2 25.2 5.6 40.13 13.06 54.8 27.6 14.4 14.26 19.07 23.86 25.2 51.33 7.2 32.27 16.67 82.93 16.67 89.6 0 8.67-3.47 18.4-9.34 26.13l-5.06 6.67 3.33 3.2c5.33 4.8 18 20.8 25.33 31.73 28.4 42.27 48.14 104.54 57.07 179.34 6.27 52.53 36.13 211.73 65.87 351.33 5.86 27.47 12.8 60.53 15.6 73.33 2.66 12.8 5.06 23.6 5.33 23.87.67.8 39.33-27.33 61.2-44.53 204-160.27 347.33-380.14 410.67-630.4 16.66-65.34 26.26-125.47 32.93-204.27 2.27-26.93 2.27-135.87 0-163.33-8.93-107.87-26.53-195.87-58.27-290.003-71.6-212.934-204.4-400.934-382.93-542.4-5.33-4.267-9.73-7.467-9.73-7.067Z"/>
  <path fill="#3B82F6" d="M1225.2 273.4c-12.13 7.733-29.6 33.067-48.53 70.933-5.07 9.867-9.2 18.134-9.34 18.267-.13.267-15.46 1.867-34 3.733-160.797 16.134-308.13 38.534-470.663 72-16.534 3.334-31.2 6.667-32.8 7.2-1.867.8-3.734 4.4-6.267 12.267-13.867 43.733-8.533 82.533 16.533 120.4 9.867 15.067 19.334 25.467 29.734 33.067l6.4 4.666 16.266-3.866c27.467-6.4 106.267-22 143.467-28.4 78.267-13.334 140.8-21.067 246.4-30.534 4.13-.4 5.6 0 5.6 1.334 0 1.333-141.333 461.203-205.2 667.463l-7.867 25.07H893.2c10 0 22.933-.4 28.8-.8l10.667-.93-5.867-44.54c-3.2-24.4-5.467-44.8-5.067-45.2.4-.53 3.334-1.2 6.534-1.46l5.866-.67 1.467 17.73c2.533 28 10.133 50 23.067 66.27 5.466 7.07 5.466 7.07 12.4 6.67l6.933-.4 6.267-12.54c10.8-21.73 15.733-45.6 15.733-77.2 0-14.26.4-18.93 1.73-18.93.8 0 2.94-.4 4.67-.8l2.93-.8v25.07c-.13 40.13-5.2 65.06-16.663 80-4.267 5.46-4.134 5.86.666 5.86 3.6 0 4.134-.53 5.867-7.06 1.2-3.74 11.07-38.4 22-76.94 48.4-169.863 84.13-287.33 123.33-404.663 30.8-91.867 49.47-142.8 73.2-198.4C1225.6 538.6 1227.6 535 1230 535c5.07 0 133.87-12 194.67-18.133 80.53-8 154.66-16.4 224.66-25.334 31.87-4 61.2-7.733 65.07-8.133 3.73-.4 6.93-.933 6.93-1.2 0-.133-1.6-4.8-3.6-10.133-2.93-8-5.06-11.2-12.26-18.4-5.87-5.867-11.34-9.867-16.4-12-4.27-1.867-7.6-3.6-7.6-4 0-.4 2.53-2.534 5.6-4.667 3.2-2.267 7.2-6.933 9.06-10.667 6.8-12.666 6-13.466-3.46-3.6-8.94 9.467-19.6 16.267-25.6 16.267-5.6 0-3.2-3.867 6.26-10.133 5.2-3.467 9.34-6.4 9.34-6.667 0-.133-3.6 1.067-8 2.933-12.14 4.934-12.8 4.667-13.87-5.2-1.47-12.666-4.53-23.2-10.13-35.066-4.67-9.734-8.8-15.867-28.27-42.267-9.2-12.4-26.4-23.867-38.67-25.733-2.4-.4-16.13 1.2-30.4 3.333-81.06 12.8-180 25.467-197.6 25.467h-8.8l-13.2-11.467c-37.06-32.533-66.53-52.267-86.93-58.4-10.27-3.067-14.8-2.667-21.6 1.6Zm-561.333 99.2c-20.534 20.133-34.934 39.6-45.867 62.667-3.2 6.8-5.733 12.4-5.6 12.666.267.134 3.467-.533 7.2-1.333l6.933-1.6 9.067-18c9.2-18.133 21.333-37.733 34.533-55.6 4-5.333 6.8-9.733 6.134-9.733-.534 0-6.134 4.933-12.4 10.933Z"/>
  <path fill="#3B82F6" d="M595.333 452.733c-6.533 1.467-12.133 2.8-12.266 2.934-.134 0 .533 3.733 1.6 8 1.066 4.666 1.866 15.2 2 25.333.133 49.067 10.533 79.2 36 104.667 7.066 7.066 21.733 16 26.4 16 1.2 0-3.067-5.2-9.2-11.734-17.334-17.733-26.934-33.333-33.6-54.4-8.4-26.666-7.867-55.333 1.466-85.6 1.734-5.466 2.134-8.266 1.067-8.133-.8.133-6.8 1.467-13.467 2.933ZM628.667 628.2C486.4 664.067 395.467 699.533 340 740.867c-14.133 10.4-37.733 33.466-50.133 48.8-35.867 44.133-51.467 87.6-47.2 131.6 5.066 52.8 29.333 120.403 78.8 218.803 14.533 28.93 22.933 47.06 24 52 2.133 10.26.8 26.4-2.534 33.2-8 15.46-28 20.8-46.4 12.26-11.466-5.33-21.066-16.8-46.666-55.2C175.6 1070.6 131.6 989 115.2 932.067c-12-41.867-21.2-98.4-25.867-159.2-1.466-19.067-.533-38.667 2.8-53.6.8-3.867 1.2-7.334.934-7.734-1.067-.933-20.534 49.734-30 77.467-115.734 341.2-66.934 718.53 131.466 1016.67 45.734 68.8 87.734 119.86 148 180.13 44.667 44.53 78.934 74.67 123.467 108 20.533 15.47 50.133 36.13 50.667 35.6.4-.27 2.666-14 5.333-30.53 15.2-96.54 45.2-232 56.667-255.34 10.133-20.66 34.933-33.73 64.133-33.86h10l2.4-9.87c2.533-11.2 8.133-23.6 14.4-32.4 2.667-3.6 14.933-14.53 29.733-26.4 20.4-16.27 25.734-21.07 26.8-24.8 13.734-42.8 18.8-59.47 29.867-98l13.067-45.47L748 1517.8c-11.733-30.27-25.467-66.8-30.8-81.2-9.467-26-9.467-26.4-8.8-36.8.933-14.27 6.133-24.67 17.467-35.07 20-18.26 53.333-32.8 105.866-46.13l22-5.6 9.067-29.33c4.933-16.14 9.333-30.67 9.867-32.4.666-2.8.4-2.94-7.467-2.94-21.733 0-46-22.4-58.4-53.6-8-20.26-13.733-49.46-15.867-80.4l-1.066-14.66-2.534 15.33c-4 23.2-3.733 64.13.4 80.53 3.2 12.67 12.267 33.07 18.134 40.8l3.6 4.67-7.734 1.07c-4.266.66-15.733.8-25.466.26-64.667-2.8-104.667-26.8-120.4-72.4l-4.534-12.93.134-27.33c0-24.8.4-28.8 3.733-44 7.733-35.2 31.733-100.537 51.067-139.337 2.533-5.2 4.133-8.8 3.333-8-2.4 2.534-35.733 53.334-44.133 67.197-40.8 68.14-58.934 140.4-46 184.14 5.066 17.33 17.333 33.2 31.866 41.46 4 2.27 7.334 4.4 7.334 4.8 0 .4-4 .4-8.934.14-16.266-1.2-28.933-10.14-39.466-27.87-6.267-10.67-12.934-31.07-13.867-42.53-1.733-20.8 9.733-72.8 22.133-100.4 2.134-4.54 26.934-45.6 55.334-91.203 28.266-45.6 51.466-83.334 51.466-83.734 0-.533-3.733-4.933-8.133-9.733-8.667-9.2-14.533-19.733-14.533-26.133 0-9.867 8.8-18.267 34.4-32.667 9.733-5.6 12.266-7.6 12.266-10 0-5.067 5.067-22.8 15.467-54.267l9.867-30-15.734-45.333-15.866-45.2-5.2-.933c-2.8-.4-9.867-1.6-15.6-2.4-12.934-1.867-24.134-5.467-36-11.467-5.067-2.533-10.8-4.533-12.667-4.4-2 0-22.133 4.8-44.933 10.4Zm455.603 499.73c1.33 18.54-.8 44.67-4.94 61.47-3.6 14.13-15.46 39.6-21.6 46.4-3.46 3.73-4.93 4.13-17.73 5.87-7.73.93-20.27 2.13-27.87 2.53l-13.863.8-5.867 20.53c-3.2 11.34-5.6 20.67-5.467 20.94.267.13 17.067-1.07 37.467-2.8 20.27-1.74 52-4.27 70.27-5.6l33.33-2.27v-40.27l-25.6.54c-14.13.26-26.53-.14-27.47-.8-1.46-.94-.8-3.34 3.47-11.74 13.2-26.53 18.53-57.73 15.07-88.53-2-17.47-2.14-17.87-6.27-19.73-1.87-.94-3.47-1.6-3.6-1.6-.13 0 .13 6.4.67 14.26Z"/>
  <path fill="#3B82F6" d="M1340.67 1264.47c-86.67 4.13-210 11.33-210.94 12.4-.26.26-1.06 11.73-1.73 25.6-2 39.33-7.6 59.33-19.6 69.86-14.53 12.8-51.07 23.07-95.07 26.67-42.663 3.33-50.93 4.27-66.663 7.47-37.6 7.46-64.8 20.53-87.2 41.86-16.934 16.14-28.267 34.27-36.134 58-2 5.87-10.4 45.07-18.8 87.2-9.333 47.34-15.866 77.34-17.066 78.54-1.067 1.06-15.334 12.53-31.734 25.46L726 1721.13l-5.867 16.54c-8 22.93-22.266 61.2-26.133 69.73l-3.067 7.2-10.533-1.73c-5.733-.94-14-1.74-18.533-1.74l-8.134-.13-.933 8.13c-2 19.87-.533 43.47 5.867 91.87 2.133 16.53 4.8 39.33 6 50.67 2.4 24.53 3.733 32.4 8.266 49.33 1.867 6.93 3.467 16.27 3.6 20.8.134 7.47-.266 8.67-6.666 18.67-14 21.6-20.667 33.46-24.534 43.33-9.466 24.8-8.666 47.6 2.667 71.2 6.533 13.47 23.6 36.27 39.733 52.93 12.134 12.54 12.667 12.94 27.734 19.2 8.4 3.47 15.466 6 15.733 5.74 1.6-1.6 9.467-23.34 12.933-35.74 2.134-7.73 12-50.13 21.867-94.13 62.267-278.67 103.867-450.13 137.467-567.07 12.533-43.86 26.8-87.73 29.333-90.13 6.4-6.4 176.4-12.8 341.6-12.8 88.53 0 91.73.27 109.6 8.93 12.27 6 22.4 15.87 30.53 29.6 14.4 24.4 29.2 30.67 62.94 26.94 20.13-2.4 82.13-12.94 99.2-16.94 27.6-6.66 47.6-14.53 62.4-24.93 6.26-4.4 7.33-5.73 6-7.2-3.6-4.4-27.87-21.6-37.34-26.4l-10.4-5.33v-6c-.13-28.54-19.33-53.2-54-69.47-24.53-11.47-47.86-17.2-70.53-17.2-21.73 0-40.93 4.67-60.8 14.67l-8.53 4.26-3.07-3.73c-10.67-13.33-23.33-47.2-29.73-79.6-1.34-6.53-1.87-7.6-4.4-7.47-1.6.14-13.07.8-25.6 1.34Z"/>
</svg>
